<svg width="96" height="97" viewBox="0 0 96 97" fill="none" xmlns="http://www.w3.org/2000/svg">
<path d="M26.3916 83.3614H41.5324" stroke="#1E4B5E" stroke-width="3" stroke-miterlimit="10" stroke-linecap="round"/>
<path d="M1.83398 83.3614H16.9748" stroke="#1E4B5E" stroke-width="3" stroke-miterlimit="10" stroke-linecap="round"/>
<path d="M50.3955 83.3614H65.5363" stroke="#1E4B5E" stroke-width="3" stroke-miterlimit="10" stroke-linecap="round"/>
<path d="M74.7686 83.3614H89.9094" stroke="#1E4B5E" stroke-width="3" stroke-miterlimit="10" stroke-linecap="round"/>
<path d="M45.8828 49.512V86.6509" stroke="#1E4B5E" stroke-width="3" stroke-miterlimit="10" stroke-linecap="round"/>
<path d="M51.7454 13.287C51.7454 10.0555 49.1207 7.43591 45.883 7.43591C42.6452 7.43591 40.0205 10.0555 40.0205 13.287V44.6449C40.0205 47.8764 42.6452 50.496 45.883 50.496C49.1207 50.496 51.7454 47.8764 51.7454 44.6449V13.287Z" fill="#1E4B5E"/>
<path d="M21.7422 49.512V86.6509" stroke="#1E4B5E" stroke-width="3" stroke-miterlimit="10" stroke-linecap="round"/>
<path d="M27.6009 13.287V44.6449C27.6009 47.8754 24.9789 50.4941 21.7421 50.496H21.7384C18.5016 50.496 15.876 47.8773 15.876 44.6449V13.287C15.876 10.0546 18.5016 7.43591 21.7384 7.43591C23.3577 7.43591 24.8238 8.09013 25.8837 9.14977C26.9454 10.2076 27.6009 11.6708 27.6009 13.287Z" fill="#1E4B5E"/>
<path d="M70.1191 49.512V86.6509" stroke="#1E4B5E" stroke-width="3" stroke-miterlimit="10" stroke-linecap="round"/>
<path d="M75.9778 13.287C75.9778 10.0555 73.3531 7.43591 70.1154 7.43591C66.8776 7.43591 64.2529 10.0555 64.2529 13.287V44.6449C64.2529 47.8764 66.8776 50.496 70.1154 50.496C73.3531 50.496 75.9778 47.8764 75.9778 44.6449V13.287Z" fill="#1E4B5E"/>
</svg>
