<svg width="85" height="75" viewBox="0 0 85 75" fill="none" xmlns="http://www.w3.org/2000/svg">
<path d="M43.9638 15.6003C39.6459 15.6003 36.1477 12.1062 36.1477 7.79884C36.1477 3.49018 39.6446 0 43.9638 0C48.2818 0 51.7812 3.4915 51.7812 7.79884C51.7799 12.1062 48.2805 15.6003 43.9638 15.6003Z" fill="#1E4B5E"/>
<path d="M20.1483 68.3408C20.1483 68.3408 80.9127 68.3408 82.4621 68.3408C84.2172 68.3408 84.0367 69.7204 84.0367 69.7204V72.0167C84.0367 72.0167 84.1959 75.0001 81.1316 75.0001H3.10734C0.0230942 75.0001 0.190239 72.0857 0.190239 72.0857V65.7262C0.190239 65.7262 0.451569 63.7151 2.81683 63.7151H10.4207C13.0274 63.7151 15.1817 68.3395 20.147 68.3395L20.1483 68.3408Z" fill="#1E4B5E"/>
<path d="M14.0889 54.2494C14.0889 58.1256 10.9343 61.2736 7.04749 61.2736C3.162 61.2736 -0.00052166 58.1243 -0.00052166 54.2494C-0.00052166 50.3586 3.162 47.2227 7.04749 47.2227C10.9343 47.2213 14.0889 50.3586 14.0889 54.2494Z" fill="#1E4B5E"/>
<path d="M37.1071 40.8476C37.5727 42.2444 38.6286 43.4251 40.117 43.9782L46.3877 46.3037L44.0742 48.6H33.4882L33.4949 32.3961L37.0381 40.7494C37.0554 40.7892 37.0872 40.8117 37.1084 40.8476H37.1071Z" fill="#1E4B5E"/>
<path d="M21.9019 52.4499H43.7902L49.0672 47.2975L52.7405 48.6506C55.4652 49.6256 58.7829 48.1372 59.8057 45.4297C60.408 43.749 60.3244 41.8719 59.3189 40.5042C59.7686 40.4843 72.5938 40.5042 72.5938 40.5042C74.7269 40.5042 76.4607 42.2208 76.4607 44.3486C76.4607 46.4804 74.7269 48.1465 72.5938 48.1465H59.5364L54.3589 55.9852L81.0904 58.1329C82.8003 58.5268 84.0791 60.0577 84.0791 61.8897C84.0791 64.0228 82.3546 65.7539 80.2268 65.7539L50.2346 65.7579C50.7546 64.9142 51.069 63.9312 51.069 62.87C51.069 59.8163 48.587 57.3343 45.5333 57.3343H33.5332L23.8082 55.3033L23.2683 57.8861L33.2613 59.9728H45.5346C47.1344 59.9728 48.4318 61.2688 48.4318 62.87C48.4318 64.4473 47.1676 65.7248 45.593 65.7579L21.8502 65.7606C18.1756 65.7301 15.228 62.7718 15.228 59.1105C15.2293 55.4346 18.2035 52.4499 21.9019 52.4499Z" fill="#1E4B5E"/>
<path d="M53.2031 46.2332C54.7525 46.9071 56.5566 46.2067 57.2331 44.6613C57.915 43.1105 57.2093 41.3064 55.6585 40.6285L44.5141 36.4446L41.0703 28.2305L43.3149 27.4014L46.2426 34.4348L54.7259 37.5589V28.9601L63.0183 38.0165L72.4023 38.0072C72.4023 38.0072 55.9809 20.0058 55.4675 19.4673C54.787 18.792 53.2309 17.6724 50.2966 17.6724H39.7517C33.761 17.6724 32.6082 23.6446 33.834 26.7355L39.3485 40.1098C39.6881 40.8779 40.3261 41.4961 41.1234 41.7826L53.2031 46.2306V46.2332Z" fill="#1E4B5E"/>
</svg>
