<svg width="89" height="85" viewBox="0 0 89 85" fill="none" xmlns="http://www.w3.org/2000/svg">
<path d="M51.7895 16.6438H33.3608C32.8609 16.821 32.3076 16.679 31.9823 16.2942C31.7033 15.9646 31.6297 15.5023 31.7852 15.0882C32.1984 13.7391 32.6365 11.7681 32.6116 9.36897C32.589 7.15753 32.1806 5.32972 31.7852 4.03923C31.7817 3.91839 31.7793 3.31772 32.2186 2.91063C32.4715 2.676 32.7873 2.58214 32.8918 2.55281C33.0794 2.49885 33.2433 2.48477 33.3596 2.48242H51.7883C51.8227 2.47186 52.4936 2.28885 53.0089 2.7546C53.3639 3.07488 53.5016 3.57465 53.3627 4.03805C52.9899 5.38838 52.6266 7.23731 52.6147 9.4464C52.6016 11.7658 52.9792 13.698 53.3627 15.0882C53.3734 15.1222 53.5586 15.7851 53.0872 16.2942C52.7631 16.645 52.2573 16.7811 51.7883 16.6438H51.7895Z" fill="#1E4B5E"/>
<path d="M51.7895 33.2959H33.3608C32.8609 33.4731 32.3076 33.3311 31.9823 32.9463C31.7033 32.6167 31.6297 32.1544 31.7852 31.7403C32.1984 30.3912 32.6365 28.4202 32.6116 26.0211C32.589 23.8096 32.1806 21.9818 31.7852 20.6913C31.7817 20.5705 31.7793 19.9698 32.2186 19.5627C32.4715 19.3281 32.7873 19.2342 32.8918 19.2049C33.0794 19.1509 33.2433 19.1369 33.3596 19.1345H51.7883C51.8227 19.124 52.4936 18.9409 53.0089 19.4067C53.3639 19.727 53.5016 20.2267 53.3627 20.6902C52.9899 22.0405 52.6266 23.8894 52.6147 26.0985C52.6016 28.4179 52.9792 30.3501 53.3627 31.7403C53.3734 31.7743 53.5586 32.4372 53.0872 32.9463C52.7631 33.2971 52.2573 33.4332 51.7883 33.2959H51.7895Z" fill="#1E4B5E"/>
<path d="M51.7895 49.948H33.3608C32.8609 50.1252 32.3076 49.9832 31.9823 49.5984C31.7033 49.2688 31.6297 48.8065 31.7852 48.3924C32.1984 47.0433 32.6365 45.0723 32.6116 42.6732C32.589 40.4617 32.1806 38.6339 31.7852 37.3434C31.7817 37.2226 31.7793 36.6219 32.2186 36.2148C32.4715 35.9802 32.7873 35.8863 32.8918 35.857C33.0794 35.803 33.2433 35.789 33.3596 35.7866H51.7883C51.8227 35.7761 52.4936 35.593 53.0089 36.0588C53.3639 36.3791 53.5016 36.8788 53.3627 37.3423C52.9899 38.6926 52.6266 40.5415 52.6147 42.7506C52.6016 45.07 52.9792 47.0022 53.3627 48.3924C53.3734 48.4264 53.5586 49.0893 53.0872 49.5984C52.7631 49.9492 52.2573 50.0853 51.7883 49.948H51.7895Z" fill="#1E4B5E"/>
<path d="M51.7895 66.6014H33.3608C32.8609 66.7785 32.3076 66.6366 31.9823 66.2518C31.7033 65.9221 31.6297 65.4599 31.7852 65.0457C32.1984 63.6966 32.6365 61.7256 32.6116 59.3265C32.589 57.115 32.1806 55.2872 31.7852 53.9967C31.7817 53.8759 31.7793 53.2752 32.2186 52.8681C32.4715 52.6335 32.7873 52.5397 32.8918 52.5103C33.0794 52.4564 33.2433 52.4423 33.3596 52.4399H51.7883C51.8227 52.4294 52.4936 52.2464 53.0089 52.7121C53.3639 53.0324 53.5016 53.5322 53.3627 53.9956C52.9899 55.3459 52.6266 57.1948 52.6147 59.4039C52.6016 61.7233 52.9792 63.6555 53.3627 65.0457C53.3734 65.0797 53.5586 65.7426 53.0872 66.2518C52.7631 66.6025 52.2573 66.7386 51.7883 66.6014H51.7895Z" fill="#1E4B5E"/>
<path d="M51.7895 83.2681H33.3608C32.8609 83.4453 32.3076 83.3033 31.9823 82.9185C31.7033 82.5888 31.6297 82.1266 31.7852 81.7125C32.1984 80.3633 32.6365 78.3924 32.6116 75.9932C32.589 73.7818 32.1806 71.954 31.7852 70.6635C31.7817 70.5427 31.7793 69.942 32.2186 69.5349C32.4715 69.3003 32.7873 69.2064 32.8918 69.1771C33.0794 69.1231 33.2433 69.109 33.3596 69.1067H51.7883C51.8227 69.0961 52.4936 68.9131 53.0089 69.3789C53.3639 69.6991 53.5016 70.1989 53.3627 70.6623C52.9899 72.0126 52.6266 73.8616 52.6147 76.0707C52.6016 78.39 52.9792 80.3223 53.3627 81.7125C53.3734 81.7465 53.5586 82.4093 53.0872 82.9185C52.7631 83.2693 52.2573 83.4054 51.7883 83.2681H51.7895Z" fill="#1E4B5E"/>
<path d="M60.5218 9.68329C60.4625 9.10726 60.2072 8.58872 59.8213 8.19336C59.8878 8.2485 59.9543 8.31068 60.0184 8.38341C60.3164 8.71894 60.5052 9.17531 60.5218 9.68329Z" fill="black"/>
<path d="M60.5355 9.94018V10.1208C60.5355 11.5111 59.3956 12.6373 57.9886 12.6373H57.8058C57.275 12.6373 56.7811 12.4766 56.3727 12.2021C55.7469 12.2795 55.069 12.405 54.353 12.5986C53.8982 12.7218 53.5812 12.8309 53.466 12.8696C51.0189 13.6861 47.2313 13.4034 43.16 13.455C36.5311 13.5383 33.9118 13.0456 33.1376 12.8778C32.9726 12.8426 32.468 12.7288 31.7508 12.5986C30.9672 12.4566 30.2512 12.3522 29.6184 12.2736H29.6172C28.8561 12.1809 28.2173 12.127 27.7293 12.093C27.5809 12.0894 27.3209 12.0648 27.0371 11.9275C26.8637 11.8431 26.6797 11.7152 26.5087 11.5228C26.1965 11.1708 26.0029 10.6851 26.0029 10.1478V9.75833C26.0029 8.6837 26.7759 7.81321 27.7293 7.81321C28.2719 7.88594 28.9701 7.93991 29.768 7.88477C30.2868 7.84958 30.8485 7.76863 31.4362 7.61846C32.3445 7.38617 32.9667 7.0788 33.1839 6.97791C35.2772 5.99948 38.6564 6.0335 43.2288 6.37372C47.8547 6.71863 51.3075 6.21769 53.4079 7.385C53.6631 7.52695 53.9481 7.71583 54.4314 7.85192C54.9894 8.00913 55.5866 8.03142 56.1791 8.00326C57.1266 7.95751 58.061 7.78036 58.7984 7.81321C58.9349 7.81907 59.1997 7.83784 59.4906 7.97863C59.5986 8.03142 59.7103 8.10064 59.8195 8.19097C59.8207 8.19214 59.8219 8.19214 59.8219 8.19332C60.2078 8.58868 60.463 9.10722 60.5224 9.68325C60.5224 9.68677 60.5236 9.69029 60.5236 9.69498C60.5319 9.77593 60.5355 9.85688 60.5355 9.94018Z" fill="#1E4B5E"/>
<path d="M27.7293 12.0931C28.2173 12.1271 28.8561 12.1811 29.6172 12.2737C29.2325 12.5049 28.7813 12.6374 28.298 12.6374H28.1152C26.7082 12.6374 25.5684 11.5112 25.5684 10.121V9.94029C25.5684 8.55125 26.7082 7.42383 28.1152 7.42383H28.298C28.8454 7.42383 29.3524 7.59394 29.768 7.88489C28.9701 7.94003 28.2719 7.88606 27.7293 7.81332C26.7759 7.81332 26.0029 8.68382 26.0029 9.75845V10.1479C26.0029 10.6853 26.1965 11.171 26.5087 11.5229C26.6797 11.7153 26.8637 11.8432 27.0371 11.9277C27.3209 12.0649 27.5809 12.0896 27.7293 12.0931Z" fill="#1E4B5E"/>
<path d="M59.8201 8.19109C59.7108 8.10075 59.5992 8.03153 59.4912 7.97874C59.2003 7.83796 58.9355 7.81919 58.799 7.81332C58.0616 7.78047 57.1272 7.95762 56.1797 8.00338C56.6214 7.64087 57.1889 7.42383 57.8063 7.42383H57.9892C58.7087 7.42383 59.357 7.71829 59.8201 8.19109Z" fill="#1E4B5E"/>
<path d="M60.5218 26.2253C60.4625 25.6493 60.2072 25.1307 59.8213 24.7354C59.8878 24.7905 59.9543 24.8527 60.0184 24.9254C60.3164 25.2609 60.5052 25.7173 60.5218 26.2253Z" fill="black"/>
<path d="M60.5355 26.4822V26.6628C60.5355 28.0531 59.3956 29.1793 57.9886 29.1793H57.8058C57.275 29.1793 56.7811 29.0186 56.3727 28.7441C55.7469 28.8215 55.069 28.947 54.353 29.1406C53.8982 29.2638 53.5812 29.3729 53.466 29.4116C51.0189 30.2281 47.2313 29.9454 43.16 29.997C36.5311 30.0803 33.9118 29.5876 33.1376 29.4198C32.9726 29.3846 32.468 29.2708 31.7508 29.1406C30.9672 28.9986 30.2512 28.8942 29.6184 28.8156H29.6172C28.8561 28.7229 28.2173 28.669 27.7293 28.6349C27.5809 28.6314 27.3209 28.6068 27.0371 28.4695C26.8637 28.3851 26.6797 28.2572 26.5087 28.0648C26.1965 27.7128 26.0029 27.2271 26.0029 26.6898V26.3003C26.0029 25.2257 26.7759 24.3552 27.7293 24.3552C28.2719 24.4279 28.9701 24.4819 29.768 24.4268C30.2868 24.3916 30.8485 24.3106 31.4362 24.1605C32.3445 23.9282 32.9667 23.6208 33.1839 23.5199C35.2772 22.5415 38.6564 22.5755 43.2288 22.9157C47.8547 23.2606 51.3075 22.7597 53.4079 23.927C53.6631 24.0689 53.9481 24.2578 54.4314 24.3939C54.9894 24.5511 55.5866 24.5734 56.1791 24.5453C57.1266 24.4995 58.061 24.3224 58.7984 24.3552C58.9349 24.3611 59.1997 24.3798 59.4906 24.5206C59.5986 24.5734 59.7103 24.6426 59.8195 24.733C59.8207 24.7341 59.8219 24.7341 59.8219 24.7353C60.2078 25.1307 60.463 25.6492 60.5224 26.2252C60.5224 26.2288 60.5236 26.2323 60.5236 26.237C60.5319 26.3179 60.5355 26.3989 60.5355 26.4822Z" fill="#1E4B5E"/>
<path d="M27.7293 28.6348C28.2173 28.6688 28.8561 28.7228 29.6172 28.8155C29.2325 29.0466 28.7813 29.1792 28.298 29.1792H28.1152C26.7082 29.1792 25.5684 28.0529 25.5684 26.6627V26.482C25.5684 25.093 26.7082 23.9656 28.1152 23.9656H28.298C28.8454 23.9656 29.3524 24.1357 29.768 24.4266C28.9701 24.4818 28.2719 24.4278 27.7293 24.3551C26.7759 24.3551 26.0029 25.2256 26.0029 26.3002V26.6897C26.0029 27.227 26.1965 27.7127 26.5087 28.0647C26.6797 28.2571 26.8637 28.3849 27.0371 28.4694C27.3209 28.6067 27.5809 28.6313 27.7293 28.6348Z" fill="#1E4B5E"/>
<path d="M59.8201 24.7328C59.7108 24.6425 59.5992 24.5733 59.4912 24.5205C59.2003 24.3797 58.9355 24.3609 58.799 24.3551C58.0616 24.3222 57.1272 24.4994 56.1797 24.5451C56.6214 24.1826 57.1889 23.9656 57.8063 23.9656H57.9892C58.7087 23.9656 59.357 24.26 59.8201 24.7328Z" fill="#1E4B5E"/>
<path d="M60.5218 42.5324C60.4625 41.9564 60.2072 41.4378 59.8213 41.0425C59.8878 41.0976 59.9543 41.1598 60.0184 41.2325C60.3164 41.5681 60.5052 42.0244 60.5218 42.5324Z" fill="black"/>
<path d="M60.5355 42.7893V42.97C60.5355 44.3602 59.3956 45.4864 57.9886 45.4864H57.8058C57.275 45.4864 56.7811 45.3257 56.3727 45.0512C55.7469 45.1286 55.069 45.2541 54.353 45.4477C53.8982 45.5709 53.5812 45.68 53.466 45.7187C51.0189 46.5353 47.2313 46.2525 43.16 46.3041C36.5311 46.3874 33.9118 45.8947 33.1376 45.7269C32.9726 45.6917 32.468 45.5779 31.7508 45.4477C30.9672 45.3058 30.2512 45.2014 29.6184 45.1227H29.6172C28.8561 45.0301 28.2173 44.9761 27.7293 44.9421C27.5809 44.9386 27.3209 44.9139 27.0371 44.7767C26.8637 44.6922 26.6797 44.5643 26.5087 44.3719C26.1965 44.02 26.0029 43.5343 26.0029 42.997V42.6075C26.0029 41.5328 26.7759 40.6623 27.7293 40.6623C28.2719 40.7351 28.9701 40.789 29.768 40.7339C30.2868 40.6987 30.8485 40.6177 31.4362 40.4676C32.3445 40.2353 32.9667 39.9279 33.1839 39.827C35.2772 38.8486 38.6564 38.8826 43.2288 39.2228C47.8547 39.5678 51.3075 39.0668 53.4079 40.2341C53.6631 40.3761 53.9481 40.565 54.4314 40.701C54.9894 40.8582 55.5866 40.8805 56.1791 40.8524C57.1266 40.8066 58.061 40.6295 58.7984 40.6623C58.9349 40.6682 59.1997 40.687 59.4906 40.8277C59.5986 40.8805 59.7103 40.9498 59.8195 41.0401C59.8207 41.0413 59.8219 41.0413 59.8219 41.0424C60.2078 41.4378 60.463 41.9563 60.5224 42.5324C60.5224 42.5359 60.5236 42.5394 60.5236 42.5441C60.5319 42.6251 60.5355 42.706 60.5355 42.7893Z" fill="#1E4B5E"/>
<path d="M27.7293 44.9422C28.2173 44.9762 28.8561 45.0302 29.6172 45.1229C29.2325 45.354 28.7813 45.4865 28.298 45.4865H28.1152C26.7082 45.4865 25.5684 44.3603 25.5684 42.9701V42.7894C25.5684 41.4004 26.7082 40.2729 28.1152 40.2729H28.298C28.8454 40.2729 29.3524 40.4431 29.768 40.734C28.9701 40.7891 28.2719 40.7352 27.7293 40.6624C26.7759 40.6624 26.0029 41.5329 26.0029 42.6076V42.9971C26.0029 43.5344 26.1965 44.0201 26.5087 44.372C26.6797 44.5644 26.8637 44.6923 27.0371 44.7768C27.3209 44.914 27.5809 44.9387 27.7293 44.9422Z" fill="#1E4B5E"/>
<path d="M59.8201 41.0402C59.7108 40.9499 59.5992 40.8807 59.4912 40.8279C59.2003 40.6871 58.9355 40.6683 58.799 40.6624C58.0616 40.6296 57.1272 40.8067 56.1797 40.8525C56.6214 40.49 57.1889 40.2729 57.8063 40.2729H57.9892C58.7087 40.2729 59.357 40.5674 59.8201 41.0402Z" fill="#1E4B5E"/>
<path d="M60.5218 60.1301C60.4625 59.554 60.2072 59.0355 59.8213 58.6401C59.8878 58.6953 59.9543 58.7575 60.0184 58.8302C60.3164 59.1657 60.5052 59.6221 60.5218 60.1301Z" fill="black"/>
<path d="M60.5355 60.387V60.5676C60.5355 61.9578 59.3956 63.0841 57.9886 63.0841H57.8058C57.275 63.0841 56.7811 62.9234 56.3727 62.6488C55.7469 62.7263 55.069 62.8518 54.353 63.0454C53.8982 63.1686 53.5812 63.2777 53.466 63.3164C51.0189 64.1329 47.2313 63.8502 43.16 63.9018C36.5311 63.9851 33.9118 63.4924 33.1376 63.3246C32.9726 63.2894 32.468 63.1756 31.7508 63.0454C30.9672 62.9034 30.2512 62.799 29.6184 62.7204H29.6172C28.8561 62.6277 28.2173 62.5738 27.7293 62.5397C27.5809 62.5362 27.3209 62.5116 27.0371 62.3743C26.8637 62.2899 26.6797 62.162 26.5087 61.9696C26.1965 61.6176 26.0029 61.1319 26.0029 60.5946V60.2051C26.0029 59.1305 26.7759 58.26 27.7293 58.26C28.2719 58.3327 28.9701 58.3867 29.768 58.3315C30.2868 58.2964 30.8485 58.2154 31.4362 58.0652C32.3445 57.8329 32.9667 57.5256 33.1839 57.4247C35.2772 56.4463 38.6564 56.4803 43.2288 56.8205C47.8547 57.1654 51.3075 56.6645 53.4079 57.8318C53.6631 57.9737 53.9481 58.1626 54.4314 58.2987C54.9894 58.4559 55.5866 58.4782 56.1791 58.45C57.1266 58.4043 58.061 58.2271 58.7984 58.26C58.9349 58.2659 59.1997 58.2846 59.4906 58.4254C59.5986 58.4782 59.7103 58.5474 59.8195 58.6377C59.8207 58.6389 59.8219 58.6389 59.8219 58.6401C60.2078 59.0355 60.463 59.554 60.5224 60.13C60.5224 60.1336 60.5236 60.1371 60.5236 60.1418C60.5319 60.2227 60.5355 60.3037 60.5355 60.387Z" fill="#1E4B5E"/>
<path d="M60.5355 76.783V76.9636C60.5355 78.3538 59.3956 79.4801 57.9886 79.4801H57.8058C57.275 79.4801 56.7811 79.3194 56.3727 79.0448C55.7469 79.1223 55.069 79.2478 54.353 79.4414C53.8982 79.5646 53.5812 79.6737 53.466 79.7124C51.0189 80.5289 47.2313 80.2462 43.16 80.2978C36.5311 80.3811 33.9118 79.8884 33.1376 79.7206C32.9726 79.6854 32.468 79.5716 31.7508 79.4414C30.9672 79.2994 30.2512 79.195 29.6184 79.1164H29.6172C28.8561 79.0237 28.2173 78.9698 27.7293 78.9357C27.5809 78.9322 27.3209 78.9076 27.0371 78.7703C26.8637 78.6858 26.6797 78.558 26.5087 78.3656C26.1965 78.0136 26.0029 77.5279 26.0029 76.9906V76.6011C26.0029 75.5265 26.7759 74.656 27.7293 74.656C28.2719 74.7287 28.9701 74.7827 29.768 74.7275C30.2868 74.6923 30.8485 74.6114 31.4362 74.4612C32.3445 74.2289 32.9667 73.9216 33.1839 73.8207C35.2772 72.8423 38.6564 72.8763 43.2288 73.2165C47.8547 73.5614 51.3075 73.0605 53.4079 74.2278C53.6631 74.3697 53.9481 74.5586 54.4314 74.6947C54.9894 74.8519 55.5866 74.8742 56.1791 74.846C57.1266 74.8003 58.061 74.6231 58.7984 74.656C58.9349 74.6618 59.1997 74.6806 59.4906 74.8214C59.5986 74.8742 59.7103 74.9434 59.8195 75.0337C59.8207 75.0349 59.8219 75.0349 59.8219 75.0361C60.2078 75.4315 60.463 75.95 60.5224 76.526C60.5224 76.5295 60.5236 76.5331 60.5236 76.5378C60.5319 76.6187 60.5355 76.6997 60.5355 76.783Z" fill="#1E4B5E"/>
<path d="M27.7293 62.5398C28.2173 62.5739 28.8561 62.6278 29.6172 62.7205C29.2325 62.9516 28.7813 63.0842 28.298 63.0842H28.1152C26.7082 63.0842 25.5684 61.958 25.5684 60.5677V60.3871C25.5684 58.998 26.7082 57.8706 28.1152 57.8706H28.298C28.8454 57.8706 29.3524 58.0407 29.768 58.3317C28.9701 58.3868 28.2719 58.3328 27.7293 58.2601C26.7759 58.2601 26.0029 59.1306 26.0029 60.2052V60.5947C26.0029 61.132 26.1965 61.6177 26.5087 61.9697C26.6797 62.1621 26.8637 62.29 27.0371 62.3744C27.3209 62.5117 27.5809 62.5363 27.7293 62.5398Z" fill="#1E4B5E"/>
<path d="M27.7293 78.9358C28.2173 78.9699 28.8561 79.0238 29.6172 79.1165C29.2325 79.3476 28.7813 79.4802 28.298 79.4802H28.1152C26.7082 79.4802 25.5684 78.354 25.5684 76.9637V76.7831C25.5684 75.394 26.7082 74.2666 28.1152 74.2666H28.298C28.8454 74.2666 29.3524 74.4367 29.768 74.7277C28.9701 74.7828 28.2719 74.7288 27.7293 74.6561C26.7759 74.6561 26.0029 75.5266 26.0029 76.6012V76.9907C26.0029 77.528 26.1965 78.0137 26.5087 78.3657C26.6797 78.5581 26.8637 78.686 27.0371 78.7704C27.3209 78.9077 27.5809 78.9323 27.7293 78.9358Z" fill="#1E4B5E"/>
<path d="M59.8201 58.6379C59.7108 58.5475 59.5992 58.4783 59.4912 58.4255C59.2003 58.2847 58.9355 58.266 58.799 58.2601C58.0616 58.2273 57.1272 58.4044 56.1797 58.4502C56.6214 58.0876 57.1889 57.8706 57.8063 57.8706H57.9892C58.7087 57.8706 59.357 58.1651 59.8201 58.6379Z" fill="#1E4B5E"/>
<path d="M59.8201 75.0339C59.7108 74.9435 59.5992 74.8743 59.4912 74.8215C59.2003 74.6807 58.9355 74.662 58.799 74.6561C58.0616 74.6232 57.1272 74.8004 56.1797 74.8462C56.6214 74.4836 57.1889 74.2666 57.8063 74.2666H57.9892C58.7087 74.2666 59.357 74.5611 59.8201 75.0339Z" fill="#1E4B5E"/>
<path d="M7.79297 34.5312L14.9618 38.0729" stroke="#1E4B5E" stroke-width="2" stroke-miterlimit="10" stroke-linecap="round"/>
<path d="M78.1689 34.5312L71.0001 38.0729" stroke="#1E4B5E" stroke-width="2" stroke-miterlimit="10" stroke-linecap="round"/>
<path d="M6 42.5H14.961" stroke="#1E4B5E" stroke-width="2" stroke-miterlimit="10" stroke-linecap="round"/>
<path d="M79.9609 42.5H70.9999" stroke="#1E4B5E" stroke-width="2" stroke-miterlimit="10" stroke-linecap="round"/>
<path d="M8.68848 50.4687L14.9612 46.927" stroke="#1E4B5E" stroke-width="2" stroke-miterlimit="10" stroke-linecap="round"/>
<path d="M77.2734 50.4687L71.0007 46.927" stroke="#1E4B5E" stroke-width="2" stroke-miterlimit="10" stroke-linecap="round"/>
</svg>
