<svg width="261" height="57" viewBox="0 0 261 57" fill="none" xmlns="http://www.w3.org/2000/svg">
<g clip-path="url(#clip0_673_1960)">
<path d="M28.7269 57C12.8831 57 0 44.2168 0 28.5042C0 12.7915 12.8831 0 28.7269 0C44.5708 0 57.4539 12.7832 57.4539 28.5042C57.4539 44.2251 44.5708 57.0083 28.7269 57.0083V57ZM28.7269 0.832238C13.3444 0.832238 0.838743 13.2409 0.838743 28.5042C0.838743 43.7674 13.3444 56.1761 28.7269 56.1761C44.1095 56.1761 56.6152 43.7591 56.6152 28.5042C56.6152 13.2492 44.1011 0.832238 28.7269 0.832238Z" fill="white"/>
<path d="M43.5724 10.611C43.5724 10.611 43.5389 10.6776 43.5221 10.7109C43.5053 10.7442 43.4801 10.8024 43.5053 10.7359C43.4466 10.8857 43.3376 10.9939 43.2034 11.0521C43.0608 11.6596 42.9098 12.2672 42.7253 12.8664C42.7085 12.933 42.7001 13.0162 42.633 13.0578C42.5575 13.0412 42.5072 12.9746 42.4569 12.9246C42.2388 12.7499 42.0375 12.5668 41.8194 12.4003C41.4839 12.134 40.9723 12.2672 40.7962 12.65C40.7794 12.6916 40.771 12.7249 40.7542 12.7748C40.6787 13.0245 40.7626 13.2825 40.9891 13.4822C41.333 13.7819 41.6768 14.0731 42.0291 14.3561C42.1298 14.431 42.1465 14.4976 42.0962 14.6141C41.9369 14.9553 41.7943 15.2965 41.6433 15.6377C41.6349 15.671 41.6181 15.7126 41.5594 15.721C41.4923 15.7043 41.442 15.6377 41.3917 15.5961L40.6033 14.9303C40.3684 14.7473 40.0832 14.7223 39.8232 14.8638C39.7477 14.9054 39.689 14.9553 39.6471 15.0302C39.6471 15.0302 39.32 15.4796 39.7394 15.8708L40.9555 16.8944C40.9555 16.8944 40.5362 17.8016 40.2174 18.1178L40.2007 18.1345C40.1168 18.1178 40.0748 18.0512 40.0161 18.0096C39.731 17.7683 39.4626 17.5352 39.1774 17.3022C38.9006 17.0775 38.5232 17.1025 38.2716 17.3355C38.0283 17.5519 37.9864 17.9347 38.1709 18.2177C38.2212 18.2926 38.2799 18.3425 38.3386 18.3925L39.2445 19.1581C39.3787 19.2663 39.3787 19.2746 39.2697 19.3995C39.0432 19.6658 38.8083 19.9321 38.5819 20.1984C38.5148 20.2816 38.4561 20.2816 38.389 20.2067L37.4496 19.4161C37.2734 19.2663 37.0554 19.1997 36.8289 19.2497C36.5689 19.3079 36.3844 19.4577 36.3089 19.724C36.2418 19.982 36.2921 20.2234 36.4934 20.3981C36.745 20.6145 37.005 20.8309 37.2483 21.039C37.4384 21.1999 37.4384 21.3608 37.2483 21.5217C37.047 21.6964 36.8457 21.8712 36.6528 22.046C36.5409 22.1403 36.4291 22.1403 36.3173 22.046L35.3276 21.2137C35.185 21.0889 35.0256 21.014 34.8243 21.0223C34.5308 21.0307 34.3211 21.1721 34.212 21.4384C34.103 21.7048 34.1533 21.9877 34.3714 22.1791C34.6398 22.4288 34.9334 22.6618 35.2185 22.9032C35.2689 22.9448 35.3443 22.9781 35.3611 23.0696C35.0256 23.3276 34.6901 23.5607 34.3378 23.8103C34.2456 23.8769 34.1869 23.8186 34.1282 23.7687L33.3062 23.078C33.2391 23.0197 33.172 22.9614 33.0965 22.9115C32.8029 22.7201 32.4255 22.77 32.1991 23.028C31.9642 23.286 31.9726 23.6938 32.2242 23.9435C32.3668 24.085 32.5262 24.2015 32.6687 24.3346L33.0126 24.6259C32.9875 24.7091 32.912 24.7258 32.8617 24.7591C32.5849 24.9338 32.3165 25.1003 32.0397 25.2667C31.7881 25.4165 31.8552 25.4249 31.6287 25.2335C31.3603 25.0171 31.1087 24.784 30.8319 24.576C30.5132 24.3263 30.077 24.3929 29.8506 24.7341C29.6493 25.0087 29.6996 25.3999 29.9848 25.6412C30.1274 25.7661 30.2867 25.8909 30.4377 26.0241C30.4712 26.049 30.5132 26.074 30.5216 26.1323C30.4125 26.2238 30.2783 26.2738 30.1525 26.357C29.9177 26.4818 29.6912 26.615 29.4564 26.7398C29.3445 26.8064 29.2383 26.7981 29.1376 26.7148C28.8273 26.4485 28.517 26.1822 28.1982 25.9242C27.8879 25.6662 27.4518 25.7411 27.2169 26.049C27.0156 26.332 27.0576 26.7148 27.3176 26.9562C27.5021 27.1226 27.6866 27.2724 27.8711 27.4306C27.9131 27.4639 27.955 27.4971 27.9718 27.5388C27.9382 27.597 27.8879 27.6137 27.8376 27.6469C27.5356 27.8134 27.2253 27.9882 26.9234 28.1713C26.7137 28.2878 26.7556 28.2711 26.5879 28.1296C26.244 27.8384 25.9085 27.5471 25.5646 27.2641C25.162 26.9395 24.5581 27.1559 24.4658 27.6553C24.4155 27.9133 24.491 28.1296 24.6923 28.3044L25.3297 28.8454C25.3801 28.887 25.4472 28.9286 25.4807 28.9952C25.4639 29.0368 25.4304 29.0534 25.3968 29.0701C25.0697 29.2781 24.751 29.4779 24.4323 29.6943C24.34 29.7525 24.2729 29.7525 24.1807 29.6776C23.8955 29.4279 23.6019 29.1783 23.3084 28.9369C23.2077 28.8537 23.0903 28.7871 22.9645 28.7621C22.8387 28.7289 22.7129 28.7455 22.5954 28.7871C22.4361 28.8454 22.2851 28.9619 22.2096 29.1283C22.1761 29.1866 22.1593 29.2448 22.1509 29.3031C22.109 29.5278 22.1845 29.7525 22.3522 29.919C22.5619 30.102 22.7716 30.2768 22.9897 30.4516C23.1322 30.5764 23.1406 30.5847 22.9897 30.6929C22.7129 30.9093 22.4193 31.1257 22.1425 31.3504C22.0587 31.4087 22.0083 31.417 21.9328 31.3504L21.1612 30.7013C21.1193 30.668 21.0689 30.6347 21.027 30.6097C20.876 30.5182 20.6915 30.4932 20.507 30.5515C20.0373 30.6929 19.8611 31.2505 20.1631 31.6167C20.1883 31.6417 20.205 31.6667 20.2302 31.6916C20.4315 31.883 20.6496 32.0495 20.8676 32.2243C21.0102 32.3491 21.0102 32.3491 20.8844 32.4739C20.6412 32.7236 20.3896 32.9733 20.1547 33.2313C20.0792 33.3062 20.0289 33.3145 19.9618 33.2396L19.4166 32.7819C19.3663 32.7402 19.316 32.7069 19.2572 32.6737C19.1818 32.632 19.0979 32.5988 19.0056 32.5904C18.7288 32.5571 18.4437 32.7153 18.3179 32.9649C18.2004 33.2063 18.2172 33.4809 18.3933 33.6807C18.4101 33.6973 18.4185 33.714 18.4353 33.7306C18.5611 33.8554 18.7037 33.972 18.8463 34.0885L19.1147 34.3132C19.165 34.3548 19.1818 34.3964 19.1398 34.463C18.9301 34.7792 18.7037 35.0872 18.5024 35.4034C18.4353 35.5033 18.385 35.4866 18.3095 35.42L17.823 35.0123C17.7056 34.9124 17.5798 34.8375 17.4204 34.8208C17.4204 34.8208 17.4036 34.8208 17.3869 34.8208C17.1017 34.8125 16.8752 34.9041 16.7326 35.1621C16.6404 35.3368 16.6152 35.5282 16.6739 35.6947C16.6991 35.7696 16.741 35.8528 16.7913 35.9111C16.8501 35.9776 16.9172 36.0442 16.9759 36.0942L17.714 36.8265C17.6049 37.0762 17.4875 37.3176 17.3701 37.5922L17.043 38.3745C17.043 38.3745 16.6823 38.0333 16.2881 37.742C15.9023 37.4424 15.5752 38.0083 15.5752 38.0083C15.5165 38.2996 15.6255 38.5326 15.8603 38.724C16.1036 38.9321 16.3468 39.1402 16.5984 39.3482C16.6991 39.4231 16.7159 39.498 16.6739 39.6062C16.5649 39.9974 16.4726 40.3802 16.3888 40.7713C16.3888 40.813 16.3888 40.8629 16.3133 40.8962C16.1875 40.788 16.0616 40.6715 15.9191 40.5716C15.5081 40.2554 14.9126 40.4967 14.8371 41.0044C14.7951 41.2624 14.8874 41.4787 15.0887 41.6535C15.3739 41.8949 15.6674 42.1445 15.9694 42.3859C16.0784 42.4774 16.1036 42.569 16.0868 42.7105C16.0449 43.1099 16.0029 43.5011 15.9862 43.9006C15.9274 44.6995 15.9023 45.5151 15.9358 46.3224C15.961 46.3557 15.9862 46.3557 16.0029 46.3224C16.0616 46.0561 16.1287 45.7981 16.1875 45.5317C16.2797 45.1323 16.3804 44.7245 16.4978 44.3333C17.2527 41.7034 18.4017 39.2567 20.0876 37.0512C20.8257 36.0858 21.6477 35.1953 22.5451 34.3631C23.4845 33.4893 24.491 32.6986 25.5394 31.9663C26.9905 30.9509 28.517 30.0521 30.0603 29.1783C31.6035 28.3044 33.1636 27.4639 34.6817 26.5484C34.7908 26.4818 34.8914 26.4236 35.0005 26.3487C36.376 25.5081 37.6928 24.601 38.8922 23.519C39.8232 22.6702 40.6704 21.7381 41.3581 20.6811C42.1801 19.4328 42.7588 18.0928 43.1363 16.6531C43.6479 14.6557 43.7402 12.625 43.5976 10.5861C43.5892 10.6027 43.5724 10.6277 43.564 10.6443L43.5724 10.611Z" fill="#FFFBF8"/>
<path d="M44.3776 16.8528C44.9227 14.8055 45.4092 12.5252 45.3589 10.4446C45.0905 12.9579 44.3692 15.8874 43.8408 17.452C41.3329 24.9338 34.5223 28.5458 27.9801 31.9247C22.2767 35.237 17.6468 40.8879 16.7158 47.5291C18.0997 41.0626 22.6961 35.7529 28.3324 32.5155C29.9344 31.7249 31.5783 30.876 33.1887 29.9273C33.6417 29.661 34.2204 29.9772 34.2204 30.5015V45.6982H40.3684V44.35C39.6638 44.35 39.0851 43.784 39.0851 43.0766V27.3141C39.0851 26.307 39.4709 25.3333 40.1503 24.5926C42.1213 22.4371 43.5808 19.8239 44.3776 16.8445V16.8528Z" fill="#76B5AD"/>
<path d="M21.9665 10.5444H18.0244V11.8178C18.8799 11.8178 19.5677 12.5085 19.5677 13.3491V29.6027C20.809 28.5457 22.9478 26.9645 24.4324 26.332V10.5444H21.9581H21.9665Z" fill="#C3B668"/>
<path d="M43.858 9.82879L44.5122 9.97027C44.7135 10.0119 44.8393 10.2033 44.7974 10.3947C44.5374 11.7513 43.4973 16.753 42.0547 19.4245V15.2383C42.0547 15.2383 43.1115 11.6015 43.4135 10.1118C43.4554 9.91201 43.6567 9.78718 43.858 9.82879Z" fill="#FFFBF8"/>
<path d="M15.508 47.4043L14.8538 47.2628C14.6525 47.2212 14.5267 47.0298 14.5686 46.8384C14.8286 45.4818 15.8687 40.4801 17.3113 37.8086V41.9948C17.3113 41.9948 16.2545 45.6316 15.9525 47.1213C15.9106 47.3211 15.7093 47.4459 15.508 47.4043Z" fill="#FFFBF8"/>
<path d="M67.7119 44.866C67.7119 41.7951 70.0688 39.5314 73.256 39.5314C74.7993 39.5314 76.1832 40.039 77.1226 41.0627L76.4097 41.7701C75.5458 40.9046 74.489 40.5301 73.2812 40.5301C70.7314 40.5301 68.8107 42.3859 68.8107 44.8743C68.8107 47.3627 70.7314 49.2186 73.2812 49.2186C74.489 49.2186 75.5458 48.8441 76.4097 47.9619L77.1226 48.6693C76.1832 49.6847 74.7993 50.209 73.2392 50.209C70.0688 50.209 67.7119 47.9453 67.7119 44.8743V44.866Z" fill="#C4B361"/>
<path d="M95.2812 39.6229V50.1091H94.1824V45.2655H87.5647V50.1091H86.4492V39.6229H87.5647V44.3001H94.1824V39.6229H95.2812Z" fill="#C4B361"/>
<path d="M105.665 39.6229H106.781V50.1091H105.665V39.6229Z" fill="#C4B361"/>
<path d="M124.386 50.1091L121.97 46.7386C121.702 46.7719 121.425 46.7802 121.123 46.7802H118.288V50.1091H117.173V39.6229H121.132C123.824 39.6229 125.451 40.9712 125.451 43.2182C125.451 44.866 124.579 46.0228 123.036 46.5139L125.619 50.1091H124.394H124.386ZM124.327 43.2182C124.327 41.5371 123.212 40.58 121.098 40.58H118.288V45.8397H121.098C123.212 45.8397 124.327 44.866 124.327 43.2182Z" fill="#C4B361"/>
<path d="M134.09 44.866C134.09 41.8117 136.447 39.5314 139.651 39.5314C142.855 39.5314 145.195 41.7951 145.195 44.866C145.195 47.937 142.821 50.2007 139.651 50.2007C136.48 50.2007 134.09 47.9203 134.09 44.866ZM144.071 44.866C144.071 42.361 142.184 40.5217 139.642 40.5217C137.101 40.5217 135.189 42.361 135.189 44.866C135.189 47.3711 137.093 49.2103 139.642 49.2103C142.192 49.2103 144.071 47.3711 144.071 44.866Z" fill="#C4B361"/>
<path d="M162.917 43.2182C162.917 45.4486 161.29 46.7968 158.598 46.7968H155.763V50.1091H154.647V39.6229H158.606C161.299 39.6229 162.926 40.9712 162.926 43.2182H162.917ZM161.802 43.2182C161.802 41.5371 160.686 40.58 158.573 40.58H155.763V45.8231H158.573C160.686 45.8231 161.802 44.866 161.802 43.2182Z" fill="#C4B361"/>
<path d="M179.492 50.1091L177.076 46.7386C176.808 46.7719 176.531 46.7802 176.229 46.7802H173.394V50.1091H172.278V39.6229H176.237C178.93 39.6229 180.557 40.9712 180.557 43.2182C180.557 44.866 179.684 46.0228 178.141 46.5139L180.724 50.1091H179.5H179.492ZM179.433 43.2182C179.433 41.5371 178.317 40.58 176.204 40.58H173.394V45.8397H176.204C178.317 45.8397 179.433 44.866 179.433 43.2182Z" fill="#C4B361"/>
<path d="M196.761 47.3045H190.873L189.606 50.1091H188.44L193.272 39.6229H194.37L199.202 50.1091H198.027L196.761 47.3045ZM196.35 46.4057L193.817 40.7714L191.284 46.4057H196.358H196.35Z" fill="#C4B361"/>
<path d="M206.817 44.866C206.817 41.7951 209.174 39.5314 212.361 39.5314C213.905 39.5314 215.289 40.039 216.228 41.0627L215.515 41.7701C214.651 40.9046 213.594 40.5301 212.387 40.5301C209.837 40.5301 207.916 42.3859 207.916 44.8743C207.916 47.3627 209.837 49.2186 212.387 49.2186C213.594 49.2186 214.651 48.8441 215.515 47.9619L216.228 48.6693C215.289 49.6847 213.905 50.209 212.345 50.209C209.174 50.209 206.817 47.9453 206.817 44.8743V44.866Z" fill="#C4B361"/>
<path d="M227.468 40.58H223.752V39.6229H232.299V40.58H228.583V50.1091H227.468V40.58Z" fill="#C4B361"/>
<path d="M241.029 39.6229H242.145V50.1091H241.029V39.6229Z" fill="#C4B361"/>
<path d="M251.598 44.866C251.598 41.7951 253.955 39.5314 257.142 39.5314C258.685 39.5314 260.069 40.039 261.008 41.0627L260.295 41.7701C259.432 40.9046 258.375 40.5301 257.167 40.5301C254.617 40.5301 252.696 42.3859 252.696 44.8743C252.696 47.3627 254.617 49.2186 257.167 49.2186C258.375 49.2186 259.432 48.8441 260.295 47.9619L261.008 48.6693C260.069 49.6847 258.685 50.209 257.125 50.209C253.955 50.209 251.598 47.9453 251.598 44.8743V44.866Z" fill="#C4B361"/>
<path d="M79.4286 4.39429V5.57607H76.1827V17.6435H88.9651V5.57607H85.7192V4.39429H96.5306V5.57607H93.2846V31.7583H96.5306V32.9401H85.7192V31.7583H88.9651V19.1166H76.1827V31.7583H79.4286V32.9401H68.6172V31.7583H71.8631V5.57607H68.6172V4.39429H79.4286Z" fill="#FFFBF8"/>
<path d="M108.977 13.1245C114.152 13.1245 116.744 16.2621 116.501 22.4206H103.76V22.9949C103.76 28.8705 105.119 31.9664 109.598 31.9664C112.928 31.9664 114.773 29.8858 115.394 26.9896L116.585 27.1561C115.889 30.5016 113.834 33.3562 108.617 33.3562C102.284 33.3562 99.4492 29.4031 99.4492 23.4443C99.4492 16.312 103.517 13.1245 108.986 13.1245H108.977ZM112.391 21.3221C112.634 16.8779 111.737 14.1066 108.608 14.1066C105.48 14.1066 104.087 16.6782 103.802 21.3221H112.391Z" fill="#FFFBF8"/>
<path d="M125.827 21.9296V31.8831H130.181V32.9401H118.799V31.8831H121.877V14.5976H118.799V13.5406H125.827V17.4521C126.649 14.5559 128.537 13.1328 130.885 13.1328C133.435 13.1328 135.037 14.6808 135.037 16.8446C135.037 19.2082 133.762 20.0237 132.403 20.0237C131.044 20.0237 130.105 19.0833 130.105 17.4521C130.105 17.0859 130.147 16.7198 130.231 16.3536H131.506C131.59 16.1122 131.59 15.8626 131.59 15.7044C131.59 14.8472 130.935 14.6808 130.273 14.6808C127.891 14.6808 125.836 18.2677 125.836 21.9379L125.827 21.9296Z" fill="#FFFBF8"/>
<path d="M143.458 21.9296V31.8831H147.811V32.9401H136.43V31.8831H139.508V14.5976H136.43V13.5406H143.458V17.4521C144.28 14.5559 146.167 13.1328 148.516 13.1328C151.066 13.1328 152.668 14.6808 152.668 16.8446C152.668 19.2082 151.393 20.0237 150.034 20.0237C148.675 20.0237 147.736 19.0833 147.736 17.4521C147.736 17.0859 147.778 16.7198 147.862 16.3536H149.137C149.221 16.1122 149.221 15.8626 149.221 15.7044C149.221 14.8472 148.566 14.6808 147.904 14.6808C145.522 14.6808 143.467 18.2677 143.467 21.9379L143.458 21.9296Z" fill="#FFFBF8"/>
<path d="M161.089 13.5239V17.2357C162.037 15.3631 163.722 13.1161 167.748 13.1161C170.869 13.1161 172.806 14.5059 173.46 17.6435C174.45 15.5629 176.379 13.1161 180.363 13.1161C183.735 13.1161 186.243 14.8721 186.243 19.9238V31.8747H189.363V32.9317H179.214V31.8747H182.292V18.9501C182.292 15.8958 181.596 14.5892 179.248 14.5892C176.086 14.5892 173.662 17.3189 173.662 21.0723V31.8747H176.782V32.9317H166.633V31.8747H169.711V19.1498C169.711 15.9291 169.015 14.5808 166.666 14.5808C163.504 14.5808 161.08 17.3106 161.08 21.064V31.8664H164.201V32.9234H154.052V31.8664H157.13V14.5808H154.052V13.5239H161.08H161.089Z" fill="#FFFBF8"/>
<path d="M202.799 23.1946V20.2152C202.799 16.5034 201.935 14.0982 198.521 14.0982C196.919 14.0982 195.233 14.5476 195.233 15.9375C195.233 16.1039 195.275 16.3037 195.317 16.5117H196.466C196.668 17.0444 196.793 17.5687 196.793 18.1013C196.793 19.566 195.804 20.4232 194.453 20.4232C193.103 20.4232 192.315 19.4079 192.315 17.8516C192.315 14.8306 195.602 13.1245 199.427 13.1245C204.359 13.1245 206.741 14.9554 206.741 20.831V29.1118C206.741 30.7846 207.236 31.3589 208.142 31.3589C209.173 31.3589 209.744 30.7846 209.995 27.5222L210.943 27.6055C210.775 31.6834 209.542 33.3562 206.707 33.3562C204.527 33.3562 203.218 32.3409 202.925 30.4184C201.893 32.291 199.763 33.3562 197.213 33.3562C194.135 33.3562 191.501 32.1328 191.501 28.6291C191.501 24.5095 195.116 23.2029 200.333 23.2029H202.799V23.1946ZM202.799 27.8052V24.2182H201.281C197.045 24.2182 195.737 26.174 195.737 28.5792C195.737 30.5765 196.642 31.7999 198.655 31.7999C200.794 31.7999 202.807 30.2936 202.807 27.8052H202.799Z" fill="#FFFBF8"/>
<path d="M219.364 13.5239V17.3605C220.312 15.3631 222.442 13.1161 226.594 13.1161C230.377 13.1161 232.675 14.9886 232.675 19.9238V31.8747H235.795V32.9317H225.646V31.8747H228.725V19.2747C228.725 16.2536 227.986 14.5892 225.437 14.5892C222.233 14.5892 219.356 17.2773 219.356 21.0723V31.8747H222.476V32.9317H212.327V31.8747H215.405V14.5892H212.327V13.5322H219.356L219.364 13.5239Z" fill="#FFFBF8"/>
<path d="M244.518 13.5239V17.3605C245.466 15.3631 247.597 13.1161 251.748 13.1161C255.531 13.1161 257.829 14.9886 257.829 19.9238V31.8747H260.949V32.9317H250.801V31.8747H253.879V19.2747C253.879 16.2536 253.141 14.5892 250.591 14.5892C247.387 14.5892 244.51 17.2773 244.51 21.0723V31.8747H247.63V32.9317H237.481V31.8747H240.56V14.5892H237.481V13.5322H244.51L244.518 13.5239Z" fill="#FFFBF8"/>
</g>
<defs>
<clipPath id="clip0_673_1960">
<rect width="261" height="57" fill="white"/>
</clipPath>
</defs>
</svg>
