<svg width="668" height="147" viewBox="0 0 668 147" fill="none" xmlns="http://www.w3.org/2000/svg">
<g clip-path="url(#clip0_673_2050)">
<path d="M73.5234 147C32.9728 147 0 114.033 0 73.5107C0 32.9886 32.9728 0 73.5234 0C114.074 0 147.047 32.9672 147.047 73.5107C147.047 114.054 114.074 147.021 73.5234 147.021V147ZM73.5234 2.1463C34.1535 2.1463 2.14667 34.1476 2.14667 73.5107C2.14667 112.874 34.1535 144.875 73.5234 144.875C112.893 144.875 144.9 112.852 144.9 73.5107C144.9 34.1691 112.872 2.1463 73.5234 2.1463Z" fill="#262626"/>
<path d="M111.519 27.3654C111.519 27.3654 111.434 27.5371 111.391 27.623C111.348 27.7088 111.283 27.8591 111.348 27.6874C111.197 28.0737 110.918 28.3527 110.575 28.503C110.21 30.0697 109.824 31.6365 109.351 33.1819C109.308 33.3536 109.287 33.5682 109.115 33.6755C108.922 33.6326 108.793 33.4609 108.664 33.3321C108.106 32.8814 107.591 32.4092 107.033 31.98C106.174 31.2931 104.865 31.6365 104.414 32.6238C104.371 32.7312 104.35 32.817 104.307 32.9458C104.113 33.5897 104.328 34.255 104.908 34.7701C105.788 35.5428 106.668 36.294 107.57 37.0238C107.827 37.2169 107.87 37.3886 107.741 37.6891C107.333 38.5691 106.969 39.4491 106.582 40.3291C106.561 40.4149 106.518 40.5222 106.367 40.5437C106.196 40.5008 106.067 40.3291 105.938 40.2217L103.92 38.5047C103.319 38.0325 102.589 37.9681 101.924 38.333C101.731 38.4403 101.58 38.5691 101.473 38.7623C101.473 38.7623 100.636 39.9213 101.709 40.93L104.822 43.57C104.822 43.57 103.749 45.9094 102.933 46.725L102.89 46.768C102.675 46.725 102.568 46.5533 102.418 46.446C101.688 45.8236 101.001 45.2226 100.271 44.6217C99.5625 44.0422 98.5965 44.1065 97.9525 44.7075C97.33 45.2655 97.2226 46.2528 97.6949 46.9826C97.8237 47.1758 97.974 47.3045 98.1242 47.4333L100.443 49.4079C100.786 49.6869 100.786 49.7084 100.507 50.0303C99.9274 50.7171 99.3264 51.404 98.7468 52.0908C98.575 52.3054 98.4248 52.3054 98.253 52.1122L95.8488 50.0733C95.398 49.6869 94.8398 49.5152 94.2602 49.644C93.5948 49.7942 93.1225 50.1806 92.9293 50.8674C92.7576 51.5327 92.8864 52.1552 93.4016 52.6059C94.0456 53.1639 94.711 53.722 95.3336 54.2585C95.8202 54.6735 95.8202 55.0884 95.3336 55.5034C94.8184 55.9541 94.3032 56.4048 93.8094 56.8556C93.5232 57.0988 93.237 57.0988 92.9508 56.8556L90.4177 54.7093C90.0528 54.3873 89.6449 54.1942 89.1297 54.2156C88.3784 54.2371 87.8417 54.6019 87.5626 55.2888C87.2836 55.9756 87.4124 56.7053 87.9705 57.199C88.6574 57.8429 89.4088 58.4438 90.1386 59.0662C90.2674 59.1736 90.4606 59.2594 90.5036 59.4955C89.6449 60.1609 88.7862 60.7618 87.8846 61.4057C87.6485 61.5774 87.4982 61.4272 87.348 61.2984L85.2442 59.517C85.0725 59.3667 84.9008 59.2165 84.7076 59.0877C83.9562 58.5941 82.9902 58.7228 82.4106 59.3882C81.8096 60.0535 81.831 61.1052 82.475 61.7491C82.84 62.114 83.2478 62.4145 83.6128 62.7579L84.4929 63.5091C84.4285 63.7237 84.2353 63.7666 84.1065 63.8525C83.3981 64.3032 82.7112 64.7325 82.0028 65.1617C81.3588 65.5481 81.5305 65.5695 80.9509 65.0759C80.264 64.5178 79.62 63.9169 78.9116 63.3803C78.0958 62.7364 76.9796 62.9081 76.4 63.7881C75.8848 64.4964 76.0136 65.5051 76.7434 66.1276C77.1084 66.4495 77.5162 66.7715 77.9026 67.1149C77.9885 67.1793 78.0958 67.2436 78.1173 67.3939C77.8382 67.63 77.4948 67.7588 77.1728 67.9734C76.5717 68.2953 75.9921 68.6387 75.391 68.9607C75.1048 69.1324 74.8329 69.1109 74.5753 68.8963C73.781 68.2095 72.9868 67.5227 72.171 66.8573C71.3768 66.192 70.2605 66.3851 69.6594 67.1793C69.1442 67.909 69.2516 68.8963 69.917 69.5187C70.3893 69.948 70.8616 70.3343 71.3338 70.7421C71.4412 70.828 71.5485 70.9138 71.5914 71.0211C71.5056 71.1714 71.3768 71.2143 71.248 71.3002C70.4752 71.7294 69.6809 72.1801 68.9081 72.6523C68.3714 72.9528 68.4788 72.9099 68.0494 72.545C67.1693 71.7938 66.3106 71.0426 65.4305 70.3128C64.4001 69.4758 62.8545 70.0338 62.6184 71.3216C62.4896 71.987 62.6828 72.545 63.198 72.9957L64.8294 74.3908C64.9582 74.4981 65.13 74.6054 65.2158 74.7772C65.1729 74.8845 65.087 74.9274 65.0012 74.9703C64.164 75.5069 63.3482 76.022 62.5325 76.58C62.2964 76.7303 62.1246 76.7303 61.8885 76.5371C61.1586 75.8932 60.4073 75.2493 59.656 74.6269C59.3984 74.4123 59.0978 74.2406 58.7758 74.1762C58.4538 74.0903 58.1318 74.1333 57.8313 74.2406C57.4234 74.3908 57.037 74.6913 56.8438 75.1206C56.758 75.2708 56.715 75.421 56.6936 75.5713C56.5862 76.1508 56.7794 76.7303 57.2088 77.1595C57.7454 77.6317 58.2821 78.0825 58.8402 78.5332C59.2052 78.8551 59.2266 78.8766 58.8402 79.1556C58.1318 79.7136 57.3805 80.2717 56.6721 80.8512C56.4574 81.0014 56.3286 81.0229 56.1354 80.8512L54.1605 79.1771C54.0532 79.0912 53.9244 79.0054 53.817 78.941C53.4306 78.7049 52.9584 78.6405 52.4861 78.7907C51.284 79.1556 50.8332 80.5936 51.606 81.538C51.6704 81.6024 51.7133 81.6668 51.7777 81.7312C52.2929 82.2248 52.851 82.6541 53.4092 83.1048C53.7741 83.4267 53.7741 83.4267 53.4521 83.7487C52.8296 84.3926 52.1856 85.0365 51.5845 85.7018C51.3913 85.895 51.2625 85.9164 51.0908 85.7233L49.6954 84.5428C49.5666 84.4355 49.4378 84.3496 49.2876 84.2638C49.0944 84.1565 48.8797 84.0706 48.6436 84.0492C47.9352 83.9633 47.2053 84.3711 46.8833 85.015C46.5828 85.6374 46.6257 86.3457 47.0765 86.8608C47.1194 86.9037 47.1409 86.9467 47.1838 86.9896C47.5058 87.3115 47.8708 87.612 48.2357 87.9125L48.9226 88.492C49.0514 88.5993 49.0944 88.7066 48.987 88.8783C48.4504 89.6939 47.8708 90.4881 47.3556 91.3037C47.1838 91.5612 47.055 91.5183 46.8618 91.3466L45.6168 90.2949C45.3162 90.0373 44.9942 89.8442 44.5864 89.8012C44.5864 89.8012 44.5434 89.8012 44.5005 89.8012C43.7706 89.7798 43.191 90.0159 42.8261 90.6812C42.59 91.132 42.5256 91.6256 42.6758 92.0549C42.7402 92.248 42.8476 92.4627 42.9764 92.6129C43.1266 92.7846 43.2984 92.9563 43.4486 93.0851L45.3377 94.9738C45.0586 95.6177 44.7581 96.2401 44.4576 96.9484L43.6204 98.9659C43.6204 98.9659 42.6973 98.086 41.6884 97.3348C40.7009 96.5621 39.8637 98.0216 39.8637 98.0216C39.7134 98.7728 39.9925 99.3737 40.5936 99.8674C41.2161 100.404 41.8386 100.941 42.4826 101.477C42.7402 101.67 42.7832 101.863 42.6758 102.142C42.3968 103.151 42.1606 104.139 41.946 105.147C41.946 105.255 41.946 105.383 41.7528 105.469C41.4308 105.19 41.1088 104.89 40.7438 104.632C39.692 103.817 38.1678 104.439 37.9746 105.748C37.8673 106.414 38.1034 106.972 38.6186 107.422C39.3485 108.045 40.0998 108.689 40.8726 109.311C41.1517 109.547 41.2161 109.783 41.1732 110.148C41.0658 111.178 40.9585 112.187 40.9156 113.217C40.7653 115.278 40.7009 117.381 40.7868 119.463C40.8512 119.549 40.9156 119.549 40.9585 119.463C41.1088 118.776 41.2805 118.111 41.4308 117.424C41.6669 116.394 41.9245 115.342 42.225 114.333C44.157 107.551 47.098 101.241 51.4128 95.5533C53.3018 93.0636 55.4056 90.7671 57.7025 88.6208C60.1068 86.3672 62.6828 84.3282 65.3661 82.4394C69.0798 79.821 72.9868 77.503 76.9366 75.2493C80.8865 72.9957 84.8793 70.828 88.7648 68.467C89.0438 68.2953 89.3014 68.1451 89.5805 67.9519C93.101 65.7842 96.4713 63.4447 99.541 60.6545C101.924 58.4653 104.092 56.0614 105.852 53.3356C107.956 50.1162 109.437 46.6606 110.403 42.9475C111.713 37.7964 111.949 32.5595 111.584 27.301C111.562 27.344 111.519 27.4083 111.498 27.4513L111.519 27.3654Z" fill="#262626"/>
<path d="M113.58 43.4625C114.976 38.1826 116.221 32.3018 116.092 26.936C115.405 33.4179 113.559 40.9728 112.206 45.0079C105.788 64.3031 88.357 73.618 71.6129 82.332C57.0156 90.8743 45.166 105.448 42.7832 122.575C46.3252 105.898 58.0889 92.205 72.5145 83.8559C76.6147 81.8169 80.8222 79.6277 84.9438 77.1809C86.103 76.4941 87.5842 77.3097 87.5842 78.6618V117.853H103.319V114.376C101.516 114.376 100.035 112.917 100.035 111.092V70.4415C100.035 67.8445 101.022 65.3333 102.761 63.4231C107.806 57.8642 111.541 51.1248 113.58 43.4411V43.4625Z" fill="#262626"/>
<path d="M56.2212 27.1936H46.1318V30.4774C48.3214 30.4774 50.0817 32.2589 50.0817 34.4266V76.3438C53.2588 73.618 58.7328 69.5401 62.5324 67.9089V27.1936H56.1997H56.2212Z" fill="#262626"/>
<path d="M112.249 25.3478L113.924 25.7126C114.439 25.8199 114.761 26.3136 114.653 26.8072C113.988 30.3057 111.326 43.205 107.634 50.0946V39.2987C107.634 39.2987 110.339 29.9194 111.111 26.0775C111.219 25.5624 111.734 25.2404 112.249 25.3478Z" fill="#262626"/>
<path d="M39.6915 122.253L38.0171 121.888C37.5019 121.781 37.1799 121.287 37.2872 120.794C37.9527 117.295 40.6145 104.396 44.3068 97.5063V108.302C44.3068 108.302 41.602 117.682 40.8292 121.523C40.7219 122.039 40.2067 122.36 39.6915 122.253Z" fill="#262626"/>
<path d="M173.301 115.707C173.301 107.787 179.333 101.949 187.49 101.949C191.44 101.949 194.982 103.258 197.386 105.898L195.562 107.723C193.351 105.491 190.646 104.525 187.555 104.525C181.029 104.525 176.113 109.311 176.113 115.728C176.113 122.146 181.029 126.932 187.555 126.932C190.646 126.932 193.351 125.966 195.562 123.691L197.386 125.516C194.982 128.134 191.44 129.486 187.447 129.486C179.333 129.486 173.301 123.648 173.301 115.728V115.707Z" fill="#262626"/>
<path d="M243.862 102.185V129.229H241.05V116.737H224.113V129.229H221.258V102.185H224.113V114.248H241.05V102.185H243.862Z" fill="#262626"/>
<path d="M270.438 102.185H273.293V129.229H270.438V102.185Z" fill="#262626"/>
<path d="M318.351 129.229L312.169 120.536C311.482 120.622 310.773 120.643 310 120.643H302.745V129.229H299.89V102.185H310.022C316.913 102.185 321.077 105.662 321.077 111.457C321.077 115.707 318.845 118.69 314.895 119.957L321.507 129.229H318.372H318.351ZM318.201 111.457C318.201 107.122 315.346 104.654 309.936 104.654H302.745V118.218H309.936C315.346 118.218 318.201 115.707 318.201 111.457Z" fill="#262626"/>
<path d="M343.188 115.707C343.188 107.83 349.221 101.949 357.421 101.949C365.621 101.949 371.61 107.787 371.61 115.707C371.61 123.627 365.535 129.465 357.421 129.465C349.306 129.465 343.188 123.584 343.188 115.707ZM368.734 115.707C368.734 109.247 363.904 104.503 357.399 104.503C350.895 104.503 346.001 109.247 346.001 115.707C346.001 122.167 350.874 126.911 357.399 126.911C363.925 126.911 368.734 122.167 368.734 115.707Z" fill="#262626"/>
<path d="M416.969 111.457C416.969 117.209 412.804 120.686 405.914 120.686H398.658V129.229H395.803V102.185H405.935C412.826 102.185 416.99 105.662 416.99 111.457H416.969ZM414.114 111.457C414.114 107.122 411.259 104.654 405.849 104.654H398.658V118.175H405.849C411.259 118.175 414.114 115.707 414.114 111.457Z" fill="#262626"/>
<path d="M459.387 129.229L453.205 120.536C452.518 120.622 451.809 120.643 451.037 120.643H443.781V129.229H440.926V102.185H451.058C457.949 102.185 462.113 105.662 462.113 111.457C462.113 115.707 459.881 118.69 455.931 119.957L462.543 129.229H459.409H459.387ZM459.237 111.457C459.237 107.122 456.382 104.654 450.972 104.654H443.781V118.218H450.972C456.382 118.218 459.237 115.707 459.237 111.457Z" fill="#262626"/>
<path d="M503.587 121.996H488.517L485.276 129.229H482.292L494.657 102.185H497.469L509.834 129.229H506.828L503.587 121.996ZM502.535 119.678L496.052 105.147L489.569 119.678H502.557H502.535Z" fill="#262626"/>
<path d="M529.325 115.707C529.325 107.787 535.357 101.949 543.515 101.949C547.465 101.949 551.007 103.258 553.411 105.898L551.586 107.723C549.375 105.491 546.67 104.525 543.579 104.525C537.053 104.525 532.137 109.311 532.137 115.728C532.137 122.146 537.053 126.932 543.579 126.932C546.67 126.932 549.375 125.966 551.586 123.691L553.411 125.516C551.007 128.134 547.465 129.486 543.472 129.486C535.357 129.486 529.325 123.648 529.325 115.728V115.707Z" fill="#262626"/>
<path d="M582.177 104.654H572.667V102.185H594.542V104.654H585.032V129.229H582.177V104.654Z" fill="#262626"/>
<path d="M616.888 102.185H619.743V129.229H616.888V102.185Z" fill="#262626"/>
<path d="M643.937 115.707C643.937 107.787 649.969 101.949 658.126 101.949C662.076 101.949 665.618 103.258 668.022 105.898L666.197 107.723C663.986 105.491 661.282 104.525 658.19 104.525C651.664 104.525 646.749 109.311 646.749 115.728C646.749 122.146 651.664 126.932 658.19 126.932C661.282 126.932 663.986 125.966 666.197 123.691L668.022 125.516C665.618 128.134 662.076 129.486 658.083 129.486C649.969 129.486 643.937 123.648 643.937 115.728V115.707Z" fill="#262626"/>
<path d="M203.29 11.3325V14.3803H194.982V45.5016H227.697V14.3803H219.39V11.3325H247.06V14.3803H238.753V81.9028H247.06V84.9506H219.39V81.9028H227.697V49.3005H194.982V81.9028H203.29V84.9506H175.619V81.9028H183.927V14.3803H175.619V11.3325H203.29Z" fill="#262626"/>
<path d="M278.916 33.8472C292.161 33.8472 298.795 41.9387 298.172 57.8213H265.564V59.3023C265.564 74.4551 269.042 82.4394 280.505 82.4394C289.027 82.4394 293.75 77.0736 295.338 69.6045L298.387 70.0338C296.605 78.6619 291.346 86.0237 277.993 86.0237C261.786 86.0237 254.53 75.8288 254.53 60.4613C254.53 42.0675 264.942 33.8472 278.938 33.8472H278.916ZM287.653 54.9882C288.276 43.527 285.979 36.3798 277.972 36.3798C269.965 36.3798 266.401 43.0119 265.671 54.9882H287.653Z" fill="#262626"/>
<path d="M322.044 56.555V82.2248H333.185V84.9506H304.055V82.2248H311.933V37.6461H304.055V34.9203H322.044V45.0079C324.148 37.5388 328.978 33.8687 334.988 33.8687C341.514 33.8687 345.614 37.8608 345.614 43.4411C345.614 49.5366 342.351 51.64 338.874 51.64C335.396 51.64 332.992 49.2147 332.992 45.0079C332.992 44.0636 333.099 43.1192 333.314 42.1748H336.577C336.791 41.5524 336.791 40.9085 336.791 40.5007C336.791 38.29 335.117 37.8608 333.421 37.8608C327.325 37.8608 322.065 47.1113 322.065 56.5765L322.044 56.555Z" fill="#262626"/>
<path d="M367.166 56.555V82.2248H378.307V84.9506H349.177V82.2248H357.055V37.6461H349.177V34.9203H367.166V45.0079C369.27 37.5388 374.1 33.8687 380.11 33.8687C386.636 33.8687 390.736 37.8608 390.736 43.4411C390.736 49.5366 387.473 51.64 383.996 51.64C380.518 51.64 378.114 49.2147 378.114 45.0079C378.114 44.0636 378.221 43.1192 378.436 42.1748H381.699C381.913 41.5524 381.913 40.9085 381.913 40.5007C381.913 38.29 380.239 37.8608 378.543 37.8608C372.447 37.8608 367.187 47.1113 367.187 56.5765L367.166 56.555Z" fill="#262626"/>
<path d="M412.289 34.8774V44.4499C414.715 39.6207 419.029 33.8257 429.333 33.8257C437.319 33.8257 442.278 37.41 443.952 45.5016C446.485 40.1358 451.423 33.8257 461.619 33.8257C470.249 33.8257 476.667 38.3544 476.667 51.3824V82.2033H484.653V84.9291H458.678V82.2033H466.557V48.8712C466.557 40.9943 464.775 37.6246 458.764 37.6246C450.671 37.6246 444.467 44.6645 444.467 54.3443V82.2033H452.453V84.9291H426.478V82.2033H434.357V49.3864C434.357 41.0802 432.575 37.6032 426.564 37.6032C418.471 37.6032 412.267 44.643 412.267 54.3228V82.1818H420.253V84.9076H394.278V82.1818H402.157V37.6032H394.278V34.8774H412.267H412.289Z" fill="#262626"/>
<path d="M519.043 59.8174V52.1336C519.043 42.5611 516.831 36.3583 508.095 36.3583C503.994 36.3583 499.68 37.5173 499.68 41.1017C499.68 41.5309 499.787 42.046 499.894 42.5826H502.835C503.35 43.9562 503.672 45.3084 503.672 46.682C503.672 50.4595 501.139 52.6702 497.683 52.6702C494.227 52.6702 492.209 50.0517 492.209 46.0381C492.209 38.2471 500.624 33.8472 510.413 33.8472C523.035 33.8472 529.132 38.569 529.132 53.7219V75.0776C529.132 79.3916 530.398 80.8726 532.717 80.8726C535.357 80.8726 536.817 79.3916 537.461 70.9781L539.887 71.1928C539.457 81.7096 536.302 86.0237 529.046 86.0237C523.465 86.0237 520.116 83.4052 519.365 78.4473C516.724 83.2764 511.272 86.0237 504.746 86.0237C496.867 86.0237 490.127 82.8686 490.127 73.8327C490.127 63.2085 499.379 59.8388 512.731 59.8388H519.043V59.8174ZM519.043 71.7079V62.4573H515.157C504.316 62.4573 500.968 67.5011 500.968 73.7039C500.968 78.8551 503.286 82.0101 508.438 82.0101C513.912 82.0101 519.064 78.1253 519.064 71.7079H519.043Z" fill="#262626"/>
<path d="M561.439 34.8774V44.7718C563.865 39.6207 569.318 33.8257 579.944 33.8257C589.625 33.8257 595.507 38.6549 595.507 51.3824V82.2033H603.492V84.9291H577.518V82.2033H585.396V49.7083C585.396 41.9172 583.507 37.6246 576.981 37.6246C568.781 37.6246 561.418 44.5572 561.418 54.3443V82.2033H569.403V84.9291H543.429V82.2033H551.307V37.6246H543.429V34.8988H561.418L561.439 34.8774Z" fill="#262626"/>
<path d="M625.818 34.8774V44.7718C628.244 39.6207 633.696 33.8257 644.322 33.8257C654.004 33.8257 659.886 38.6549 659.886 51.3824V82.2033H667.871V84.9291H641.897V82.2033H649.775V49.7083C649.775 41.9172 647.886 37.6246 641.36 37.6246C633.16 37.6246 625.797 44.5572 625.797 54.3443V82.2033H633.782V84.9291H607.808V82.2033H615.686V37.6246H607.808V34.8988H625.797L625.818 34.8774Z" fill="#262626"/>
</g>
<defs>
<clipPath id="clip0_673_2050">
<rect width="668" height="147" fill="white"/>
</clipPath>
</defs>
</svg>
